<svg xmlns="http://www.w3.org/2000/svg" width="546.806" height="394.888" viewBox="0 0 546.806 394.888">
  <g id="g10" transform="translate(-0.002 394.888)">
    <g id="g12">
      <path id="path14" d="M546.808,0V-394.888H0Z" fill="#fff"/>
      <path id="path16" d="M501.916-188.022H383.924c-7.869,0-14.252-7.569-14.252-16.907s6.383-16.908,14.252-16.908H501.916c7.871,0,14.253-7.569,14.253-16.907s-6.383-16.908-14.253-16.908H454.79c7.872,0,14.253-7.569,14.253-16.907s-6.381-16.908-14.253-16.908H376.68c-7.873,0-14.253-7.568-14.253-16.907s6.38-16.908,14.253-16.908h53.6c7.872,0,14.252-7.568,14.252-16.907s-6.38-16.907-14.252-16.907H31.3c-7.871,0-14.254,7.571-14.254,16.907s6.383,16.907,14.254,16.907H55.8c-7.871,0-14.252,7.572-14.252,16.908s6.382,16.907,14.252,16.907h56.173c7.872,0,14.252,7.572,14.252,16.908s-6.38,16.907-14.252,16.907H55.8c-7.871,0-14.252,7.571-14.252,16.908s6.382,16.907,14.252,16.907H170.41c7.872,0,14.253,7.571,14.253,16.908s-6.381,16.907-14.253,16.907H55.8c-7.871,0-14.252,7.571-14.252,16.908s6.382,16.907,14.252,16.907H87.469c7.873,0,14.254,7.569,14.254,16.907s-6.381,16.908-14.254,16.908H31.3c-7.871,0-14.254,7.57-14.254,16.907S23.426-86.58,31.3-86.58H477.408c7.871,0,14.252-7.568,14.252-16.906s-6.381-16.907-14.252-16.907H430.282c7.872,0,14.252-7.569,14.252-16.908s-6.38-16.907-14.252-16.907h71.634c7.871,0,14.253-7.569,14.253-16.907s-6.383-16.908-14.253-16.908" fill="#9cdff9"/>
      <path id="path18" d="M122.542-76.937c0,4.23-16.544,7.659-36.952,7.659s-36.956-3.429-36.956-7.659S65.18-84.6,85.59-84.6s36.952,3.429,36.952,7.658" fill="#c3d5dc"/>
      <path id="path20" d="M482.855-53.592c0,4.23-18.725,7.657-41.825,7.657S399.2-49.362,399.2-53.592s18.728-7.658,41.825-7.658,41.825,3.428,41.825,7.658" fill="#c3d5dc"/>
      <path id="path22" d="M425.967-43.164c0,4.229-83.261,7.659-185.958,7.659S54.051-38.935,54.051-43.164s83.257-7.659,185.958-7.659,185.958,3.43,185.958,7.659" fill="#c3d5dc"/>
      <path id="path24" d="M90.583-221.406S80.048-210.064,77.5-208.63s-12.08,1.4-12.08,1.4,1.789-6.412,7.456-9.605c2.546-1.436,17.7-4.573,17.7-4.573" fill="#537f2c"/>
      <path id="path26" d="M90.583-221.406S80.048-210.064,77.5-208.63c-7.9,4.456-12.08,1.4-12.08,1.4l25.16-14.179" fill="#476d25"/>
      <path id="path28" d="M86.949-212.338S79.1-199,76.92-197.05s-11.5,3.964-11.5,3.964.372-6.645,5.221-10.983c2.173-1.948,16.3-8.269,16.3-8.269" fill="#537f2c"/>
      <path id="path30" d="M86.949-212.338S79.1-199,76.92-197.05c-6.76,6.049-11.5,3.964-11.5,3.964l21.525-19.252" fill="#476d25"/>
      <path id="path32" d="M85.59-201.509s-4.289,14.872-5.915,17.3-10.15,6.7-10.15,6.7-1.292-6.532,2.325-11.935c1.623-2.425,13.74-12.064,13.74-12.064" fill="#537f2c"/>
      <path id="path34" d="M85.59-201.509s-4.289,14.872-5.915,17.3c-5.046,7.541-10.15,6.7-10.15,6.7l16.065-24" fill="#476d25"/>
      <path id="path36" d="M90.806-191.332s-4.289,14.873-5.913,17.3-10.154,6.7-10.154,6.7-1.291-6.532,2.328-11.936c1.622-2.425,13.738-12.063,13.738-12.063" fill="#537f2c"/>
      <path id="path38" d="M90.806-191.332s-4.289,14.873-5.913,17.3c-5.047,7.539-10.154,6.7-10.154,6.7l16.067-24" fill="#476d25"/>
      <path id="path40" d="M91.734-231.3S81.2-219.958,78.654-218.525s-12.078,1.4-12.078,1.4,1.789-6.412,7.452-9.6c2.549-1.437,17.706-4.576,17.706-4.576" fill="#537f2c"/>
      <path id="path42" d="M91.734-231.3S81.2-219.958,78.654-218.525c-7.9,4.456-12.078,1.4-12.078,1.4L91.734-231.3" fill="#476d25"/>
      <path id="path44" d="M90.583-236.125s-8.927,8.561-11.027,9.591-9.7.561-9.7.561a14,14,0,0,1,6.394-7.321c2.1-1.029,14.337-2.831,14.337-2.831" fill="#537f2c"/>
      <path id="path46" d="M90.583-236.125s-8.927,8.561-11.027,9.591c-6.514,3.188-9.7.561-9.7.561l20.731-10.152" fill="#476d25"/>
      <path id="path48" d="M43.556-221.669s7.309,13.645,9.4,15.68,11.328,4.427,11.328,4.427-.1-6.66-4.768-11.185c-2.1-2.033-15.964-8.921-15.964-8.921" fill="#537f2c"/>
      <path id="path50" d="M43.556-221.669s7.309,13.645,9.4,15.68c6.512,6.317,11.328,4.427,11.328,4.427L43.556-221.669" fill="#476d25"/>
      <path id="path52" d="M42.835-209.841s8.307,13.063,10.551,14.936,11.628,3.563,11.628,3.563-.6-6.629-5.6-10.795c-2.245-1.871-16.583-7.7-16.583-7.7" fill="#537f2c"/>
      <path id="path54" d="M42.835-209.841s8.307,13.063,10.551,14.936c6.963,5.812,11.628,3.563,11.628,3.563l-22.179-18.5" fill="#476d25"/>
      <path id="path56" d="M45.626-196.024s9.308,12.372,11.689,14.063,11.872,2.64,11.872,2.64-1.121-6.565-6.429-10.323c-2.38-1.688-17.133-6.38-17.133-6.38" fill="#537f2c"/>
      <path id="path58" d="M45.626-196.024s9.308,12.372,11.689,14.063c7.4,5.247,11.872,2.64,11.872,2.64l-23.561-16.7" fill="#476d25"/>
      <path id="path60" d="M48.153-175.8s12.354,9.32,15.114,10.293,12.139-.739,12.139-.739-2.887-6-9.026-8.148c-2.754-.968-18.228-1.407-18.228-1.407" fill="#537f2c"/>
      <path id="path62" d="M48.153-175.8s12.354,9.32,15.114,10.293c8.561,3,12.139-.739,12.139-.739L48.153-175.8" fill="#476d25"/>
      <path id="path64" d="M51.748-236.842s3.034,15.181,4.452,17.736,9.553,7.52,9.553,7.52,1.833-6.4-1.32-12.088c-1.418-2.553-12.685-13.168-12.685-13.168" fill="#537f2c"/>
      <path id="path66" d="M51.748-236.842s3.034,15.181,4.452,17.736c4.4,7.933,9.553,7.52,9.553,7.52L51.748-236.842" fill="#476d25"/>
      <path id="path68" d="M57.406-245.387s3.121,11.968,4.371,13.945,7.971,5.561,7.971,5.561a13.992,13.992,0,0,0-1.609-9.584c-1.249-1.979-10.733-9.923-10.733-9.923" fill="#537f2c"/>
      <path id="path70" d="M57.406-245.387s3.121,11.968,4.371,13.945c3.881,6.131,7.971,5.561,7.971,5.561L57.406-245.387" fill="#476d25"/>
      <path id="path72" d="M90.165-140.889s-.9-1.151-2.378-3.233c-1.458-2.093-3.559-5.081-5.894-8.791-1.177-1.847-2.41-3.876-3.681-6.044-1.248-2.18-2.581-4.473-3.833-6.916-.654-1.207-1.279-2.456-1.9-3.725s-1.272-2.547-1.842-3.875c-1.2-2.627-2.32-5.349-3.339-8.116a68.3,68.3,0,0,1-2.458-8.484q-.2-1.082-.406-2.157c-.06-.372-.136-.687-.182-1.1l-.1-1.052c-.144-1.395-.287-2.773-.312-4.189a54.476,54.476,0,0,1,.223-8c.117-1.264.3-2.485.469-3.667.237-1.171.409-2.309.679-3.381a49.41,49.41,0,0,1,1.67-5.783c.589-1.691,1.193-3.129,1.716-4.3a28.984,28.984,0,0,1,1.883-3.552,39.941,39.941,0,0,0-1.47,3.717c-.415,1.2-.884,2.668-1.315,4.379s-.843,3.656-1.2,5.787a66.62,66.62,0,0,0-.736,6.925c-.029,1.235-.126,2.5-.068,3.795q.015.97.029,1.96c.024.657.083,1.313.122,1.977.053,1.317.236,2.7.419,4.093l.133,1.049c.039.284.133.661.2.988.133.679.268,1.363.4,2.047a67.551,67.551,0,0,0,2.451,8.179c.971,2.708,2.041,5.391,3.2,7.988.556,1.309,1.154,2.591,1.742,3.857s1.163,2.521,1.775,3.735c1.192,2.441,2.391,4.783,3.534,7,1.177,2.2,2.292,4.283,3.32,6.2,2.1,3.821,3.848,7.017,5.141,9.213,1.276,2.211,2.005,3.472,2.005,3.472" fill="#476d25"/>
      <path id="path74" d="M80.658-160.742s.8-14.98,2.174-17.536c2.867-5.34,8.984-8.756,10.33-10.193s6.035-20.023,8.224-22.023,11.079-5.325,12.237-6.2,1.963-11.745,5.636-15.328c4.814-4.691,11.339-5.032,15.126-7.961,3.881-3,8.1-6.112,8.1-6.112L83.527-158.318l-2.869-2.424" fill="#537f2c"/>
      <path id="path76" d="M85.9-149.79s11.456-4.72,13.7-6.593c9.243-7.752,6.523-13.8,7.343-15.585s13.662-8.6,17.386-16.063c3.009-6.041,3.832-15.156,4.285-16.516,1.449-4.343,6.207-6.625,8.121-11.351,2.5-6.192.525-13.713,1.777-18.3,1.288-4.687,3.972-11.9,3.972-11.9l-62.65,93.029,6.07,3.272" fill="#476d25"/>
      <path id="path78" d="M90.068-158.02s4.975-14.917,6.235-16.175c2.633-2.624,8.262-3.043,9.5-3.581s5.527-11.233,7.539-11.891,10.2-.2,11.266-.419,1.789-7.061,5.167-8.305c4.428-1.629,10.437.067,13.924-.72,3.571-.805,7.453-1.584,7.453-1.584L96.974-161.017l-6.906,3" fill="#537f2c"/>
      <path id="path80" d="M99.178-154.777s10.549.305,12.605-.251c8.505-2.315,5.991-7.048,6.746-7.967s12.57-1.563,15.988-5.319c2.764-3.039,3.505-8.719,3.923-9.471,1.325-2.395,5.705-2.479,7.464-4.985,2.289-3.288.456-8.757,1.609-11.368a65.122,65.122,0,0,1,3.637-6.557L93.58-158.689l5.6,3.912" fill="#476d25"/>
      <path id="path82" d="M111.745-79.389H69.923L55.315-161.708h67.054L111.745-79.389" fill="#cc7c38"/>
      <path id="path84" d="M122.368-137.808H55.315v-23.9h67.054v23.9" fill="#f79745"/>
      <path id="path86" d="M422.159-119.508H359.875v-91.505h62.284v91.505" fill="#c8c7c7"/>
      <path id="path88" d="M419.963-122.16h-57.89v-86.2h57.89v86.2" fill="#e9e9e9"/>
      <path id="path90" d="M422.159-183.164H359.875v-27.849h62.284v27.849" fill="#3d4d57"/>
      <path id="path92" d="M416.391-187.34H365.643v-19.5h50.748v19.5" fill="#fff"/>
      <path id="path94" d="M414.623-206.837v18.5h-48.98v.995h50.748v-19.5h-1.768" fill="#e0e0e0"/>
      <path id="path96" d="M374.644-167.538H364.69v-10.873h9.955v10.873" fill="#bfbebe"/>
      <path id="path98" d="M373.476-168.941h-8.449v-9h8.449v9" fill="#d3d2d2"/>
      <path id="path100" d="M388.547-167.538h-9.956v-10.873h9.956v10.873" fill="#bfbebe"/>
      <path id="path102" d="M387.379-168.941H378.93v-9h8.449v9" fill="#d3d2d2"/>
      <path id="path104" d="M402.826-167.538H392.87v-10.873h9.956v10.873" fill="#bfbebe"/>
      <path id="path106" d="M401.656-168.941h-8.448v-9h8.448v9" fill="#d3d2d2"/>
      <path id="path108" d="M417.476-167.538h-9.952v-10.873h9.952v10.873" fill="#bfbebe"/>
      <path id="path110" d="M416.307-168.941h-8.448v-9h8.448v9" fill="#d3d2d2"/>
      <path id="path112" d="M374.644-153.628H364.69V-164.5h9.955v10.872" fill="#bfbebe"/>
      <path id="path114" d="M373.476-155.032h-8.449v-9h8.449v9" fill="#d3d2d2"/>
      <path id="path116" d="M388.547-153.628h-9.956V-164.5h9.956v10.872" fill="#bfbebe"/>
      <path id="path118" d="M387.379-155.032H378.93v-9h8.449v9" fill="#d3d2d2"/>
      <path id="path120" d="M402.826-153.628H392.87V-164.5h9.956v10.872" fill="#bfbebe"/>
      <path id="path122" d="M401.656-155.032h-8.448v-9h8.448v9" fill="#d3d2d2"/>
      <path id="path124" d="M417.476-153.628h-9.952V-164.5h9.952v10.872" fill="#bfbebe"/>
      <path id="path126" d="M416.307-155.032h-8.448v-9h8.448v9" fill="#d3d2d2"/>
      <path id="path128" d="M374.644-139.717H364.69V-150.59h9.955v10.873" fill="#bfbebe"/>
      <path id="path130" d="M373.476-141.12h-8.449v-9h8.449v9" fill="#d3d2d2"/>
      <path id="path132" d="M388.547-139.717h-9.956V-150.59h9.956v10.873" fill="#bfbebe"/>
      <path id="path134" d="M387.379-141.12H378.93v-9h8.449v9" fill="#d3d2d2"/>
      <path id="path136" d="M402.826-139.717H392.87V-150.59h9.956v10.873" fill="#bfbebe"/>
      <path id="path138" d="M401.656-141.12h-8.448v-9h8.448v9" fill="#d3d2d2"/>
      <path id="path140" d="M374.644-125.808H364.69V-136.68h9.955v10.872" fill="#bfbebe"/>
      <path id="path142" d="M373.476-127.21h-8.449v-9h8.449v9" fill="#d3d2d2"/>
      <path id="path144" d="M388.547-125.808h-9.956V-136.68h9.956v10.872" fill="#bfbebe"/>
      <path id="path146" d="M387.379-127.21H378.93v-9h8.449v9" fill="#d3d2d2"/>
      <path id="path148" d="M402.826-125.808H392.87V-136.68h9.956v10.872" fill="#bfbebe"/>
      <path id="path150" d="M401.656-127.21h-8.448v-9h8.448v9" fill="#d3d2d2"/>
      <path id="path152" d="M417.476-125.808h-9.952v-25.016h9.952v25.016" fill="#bfbebe"/>
      <path id="path154" d="M416.307-127.21h-8.448v-23.146h8.448v23.146" fill="#d3d2d2"/>
      <path id="path156" d="M395.439-193.549l.172.172v2.4a.551.551,0,0,1-.428.428l-.257-.685v-1.8Zm-1.2,3.256v.428l-.344.343-.341-.343v-.428Zm-.685-1.2v-1.541h.685v1.541Zm0-2.741v-1.541h.685v1.541Zm0-2.74v-.429l.341-.343.344.343v.429Zm1.369,3,.343.343-.343.343H392.7l-.343-.343.343-.343Zm-2.219-2.056-.684-.256a.549.549,0,0,1,.427-.429h2.733a.551.551,0,0,1,.428.429l-.685.256Zm2.305,5.483h-2.571a.549.549,0,0,1-.428-.428l.685-.257h2.055Zm-2.313-5.311v1.627l-.515.515-.171-.171v-2.228l.685.257" fill="#7b7979"/>
      <path id="path158" d="M399.723-193.549l.172.172v2.4a.553.553,0,0,1-.429.428l-.256-.685v-1.8Zm-.513-.685v-1.8l.256-.685a.553.553,0,0,1,.429.429v2.4l-.172.171Zm-.172-1.8h-2.047l-.687-.256a.551.551,0,0,1,.429-.429h2.561Zm.257,5.483h-2.569a.551.551,0,0,1-.429-.428l.685-.257h2.056Zm-3-.6v-2.227l.172-.172.513.515v1.627Zm.685-4.711v1.627l-.513.515-.172-.171v-2.228l.685.257" fill="#7b7979"/>
      <path id="path160" d="M402.722-190.55h-.687v-.685h.687v.685" fill="#7b7979"/>
      <path id="path162" d="M408.29-193.549l.171.172v2.4a.549.549,0,0,1-.428.428l-.257-.685v-1.8Zm-.515-.685v-1.8l.257-.685a.549.549,0,0,1,.428.429v2.4l-.171.171Zm-.171-1.8h-2.048l-.685-.256a.553.553,0,0,1,.429-.429h2.56Zm.256,5.483h-2.569a.551.551,0,0,1-.428-.428l.685-.257H407.6Zm-3-.6v-2.227l.171-.172.515.515v1.627Zm.685-4.711v1.627l-.515.515-.171-.171v-2.228l.685.257" fill="#7b7979"/>
      <path id="path164" d="M412.572-193.549l.172.172v2.4a.553.553,0,0,1-.429.428l-.256-.685v-1.8Zm-.513-.685v-1.8l.256-.685a.553.553,0,0,1,.429.429v2.4l-.172.171Zm-.172-1.8H409.84l-.685-.256a.551.551,0,0,1,.428-.429h2.561Zm.257,5.483h-2.569a.551.551,0,0,1-.429-.428l.687-.257h2.055Zm-3-.6v-2.227l.171-.172.516.515v1.627Zm.687-4.711v1.627l-.516.515-.171-.171v-2.228l.687.257" fill="#7b7979"/>
      <path id="path166" d="M486.473-102.225a48.63,48.63,0,0,1-48.629,48.632,48.63,48.63,0,0,1-48.633-48.632,48.631,48.631,0,0,1,48.633-48.632,48.631,48.631,0,0,1,48.629,48.632" fill="#57c9f4"/>
      <path id="path168" d="M441.28-56.24c-26.861,0-48.631-22.562-48.631-49.421,0-12.665,6.428-25.516,14.361-34.17a48.528,48.528,0,0,0-17.8,37.606,48.63,48.63,0,0,0,48.633,48.632A48.5,48.5,0,0,0,473.7-69.376c-8.392,6.89-20.715,13.136-32.417,13.136" fill="#4cb4dd"/>
      <path id="path170" d="M437.844-150.857a48.5,48.5,0,0,0-36.065,16.009,48.457,48.457,0,0,1,32.629-12.572,48.631,48.631,0,0,1,48.631,48.63,48.446,48.446,0,0,1-12.568,32.623,48.5,48.5,0,0,0,16-36.059,48.631,48.631,0,0,0-48.629-48.632" fill="#70d1f6"/>
      <path id="path172" d="M478.281-102.225a40.438,40.438,0,0,1-40.437,40.439,40.438,40.438,0,0,1-40.439-40.439,40.438,40.438,0,0,1,40.439-40.438,40.438,40.438,0,0,1,40.437,40.438" fill="#fff"/>
      <path id="path174" d="M440.222-64.165A40.439,40.439,0,0,1,399.783-104.6a40.286,40.286,0,0,1,10.684-27.377,40.322,40.322,0,0,0-13.061,29.756,40.438,40.438,0,0,0,40.439,40.439A40.327,40.327,0,0,0,467.6-74.848a40.3,40.3,0,0,1-27.377,10.683" fill="#c4ecfb"/>
      <path id="path176" d="M441.28-102.225a3.438,3.438,0,0,1-3.436,3.436,3.438,3.438,0,0,1-3.439-3.436,3.437,3.437,0,0,1,3.439-3.436,3.437,3.437,0,0,1,3.436,3.436" fill="#2d8bb2"/>
      <path id="path178" d="M439.527-139.558a1.683,1.683,0,0,1-1.683,1.683,1.683,1.683,0,0,1-1.684-1.683,1.683,1.683,0,0,1,1.684-1.684,1.684,1.684,0,0,1,1.683,1.684" fill="#2d8bb2"/>
      <path id="path180" d="M439.527-64.762a1.683,1.683,0,0,1-1.683,1.682,1.683,1.683,0,0,1-1.684-1.682,1.684,1.684,0,0,1,1.684-1.684,1.684,1.684,0,0,1,1.683,1.684" fill="#2d8bb2"/>
      <path id="path182" d="M475.241-100.477a1.685,1.685,0,0,1-1.685-1.684,1.684,1.684,0,0,1,1.685-1.683,1.683,1.683,0,0,1,1.684,1.683,1.684,1.684,0,0,1-1.684,1.684" fill="#2d8bb2"/>
      <path id="path184" d="M400.446-100.477a1.686,1.686,0,0,1-1.687-1.684,1.685,1.685,0,0,1,1.687-1.683,1.685,1.685,0,0,1,1.685,1.683,1.686,1.686,0,0,1-1.685,1.684" fill="#2d8bb2"/>
      <path id="path186" d="M439.032-102.225v-32.708a1.189,1.189,0,0,0-1.188-1.189,1.19,1.19,0,0,0-1.189,1.189v32.708a1.189,1.189,0,0,0,1.189,1.189,1.189,1.189,0,0,0,1.188-1.189" fill="#2d8bb2"/>
      <path id="path188" d="M437.007-101.38l16.468,16.3a1.188,1.188,0,0,0,1.681-.008,1.188,1.188,0,0,0-.009-1.682l-16.467-16.3a1.187,1.187,0,0,0-1.681.009,1.188,1.188,0,0,0,.008,1.681" fill="#2d8bb2"/>
      <path id="path190" d="M334.924-105.949a6.59,6.59,0,0,1-6.589,6.588l-194.089,2.59s-6.849-5.54-6.849-9.178V-229.255a6.587,6.587,0,0,1,6.584-6.588H328.335c3.639,0,9.605,6.532,9.605,6.532l-3.016,123.362" fill="#28122d"/>
      <path id="path192" d="M340.154-101.086a6.583,6.583,0,0,1-6.583,6.586H139.214a6.586,6.586,0,0,1-6.584-6.586V-224.391a6.588,6.588,0,0,1,6.584-6.589H333.571a6.585,6.585,0,0,1,6.583,6.589v123.305" fill="#3e1e4f"/>
      <path id="path194" d="M83.625-59.374v9.622c0,3.638,3.3,6.588,7.378,6.588H373.846c4.073,0,7.377-2.951,7.377-6.588v-9.622H83.625" fill="#e2e2e2"/>
      <path id="path196" d="M138.956-103.03H333.831V-218.568H138.956Z" fill="#a992ca"/>
      <path id="path198" d="M141.733-104.971v-113.6h-2.777V-103.03H333.831v-1.94h-192.1" fill="#816e98"/>
      <path id="path200" d="M239.17-223.838a2.776,2.776,0,0,1-2.776,2.776,2.778,2.778,0,0,1-2.779-2.776,2.779,2.779,0,0,1,2.779-2.779,2.776,2.776,0,0,1,2.776,2.779" fill="#a992ca"/>
      <path id="path202" d="M141.733-124.212v-25.2l115.816-69.155h40.528L141.733-124.212" fill="#cdbee0"/>
      <path id="path204" d="M138.956-122.535v-25.22l2.777-1.659v25.2l-2.777,1.677" fill="#b4a6c4"/>
      <path id="path206" d="M141.733-106.954v-8.987L311.855-218.567h12.561L141.733-106.954" fill="#cdbee0"/>
      <path id="path208" d="M138.956-105.257v-9.008l2.777-1.676v8.987l-2.777,1.7" fill="#b4a6c4"/>
      <path id="path210" d="M381.223-59.374H83.625L135.674-94.5H337.12l44.1,35.125" fill="#fff"/>
      <path id="path212" d="M139-89.521,107.769-68.447H358.787L332.323-89.521H139" fill="#deddde"/>
      <path id="path214" d="M348.63-116.942H166.141v-125.9H348.63v125.9" fill="#fff"/>
      <path id="path216" d="M348.63-227.739H166.141v-15.1H348.63v15.1" fill="#00adef"/>
      <path id="path218" d="M320.018-235.846a4.77,4.77,0,0,1-4.769,4.768,4.769,4.769,0,0,1-4.769-4.768,4.77,4.77,0,0,1,4.769-4.769,4.771,4.771,0,0,1,4.769,4.769" fill="#fff"/>
      <path id="path220" d="M333.211-235.846a4.768,4.768,0,0,1-4.769,4.768,4.769,4.769,0,0,1-4.769-4.768,4.77,4.77,0,0,1,4.769-4.769,4.769,4.769,0,0,1,4.769,4.769" fill="#fff"/>
      <path id="path222" d="M344.974-235.846a4.768,4.768,0,0,1-4.769,4.768,4.769,4.769,0,0,1-4.768-4.768,4.77,4.77,0,0,1,4.768-4.769,4.769,4.769,0,0,1,4.769,4.769" fill="#fff"/>
      <path id="path224" d="M291.085-236a3.655,3.655,0,0,1-3.655,3.656h-113.5A3.657,3.657,0,0,1,170.274-236a3.657,3.657,0,0,1,3.657-3.657h113.5A3.656,3.656,0,0,1,291.085-236" fill="#fff"/>
      <path id="path226" d="M244.033-143.966H180.766v-63.267h63.267v63.267" fill="#7154af"/>
      <path id="path228" d="M337.5-198.808H260.566v-8.425H337.5v8.425" fill="#d3d2d2"/>
      <path id="path230" d="M337.5-190.382H260.566v-6.041H337.5v6.041" fill="#d3d2d2"/>
      <path id="path232" d="M310.479-181.8H260.566v-6.04h49.913v6.04" fill="#d3d2d2"/>
      <path id="path234" d="M328.442-159.862H260.566V-165.9h67.876v6.041" fill="#d3d2d2"/>
      <path id="path236" d="M310.479-151.278H260.566v-6.04h49.913v6.04" fill="#d3d2d2"/>
      <path id="path244" d="M223.983-122.623H213.047v-11.06h10.936v11.06" fill="#d3d2d2"/>
      <path id="path250" d="M225.951-128.153H211.082v-11.06h14.869v11.06" fill="#3d4d57"/>
      <rect id="Rectangle_1" data-name="Rectangle 1" width="53" height="20" transform="translate(186.002 -201.782)" fill="#fff"/>
      <rect id="Rectangle_2" data-name="Rectangle 2" width="53" height="4" transform="translate(186.002 -179.782)" fill="#fff"/>
      <rect id="Rectangle_3" data-name="Rectangle 3" width="53" height="4" transform="translate(186.002 -173.782)" fill="#fff"/>
      <rect id="Rectangle_4" data-name="Rectangle 4" width="29" height="4" transform="translate(186.002 -167.782)" fill="#fff"/>
      <rect id="Rectangle_5" data-name="Rectangle 5" width="37" height="4" transform="translate(186.002 -161.782)" fill="#fff"/>
      <rect id="Rectangle_6" data-name="Rectangle 6" width="49" height="4" transform="translate(186.002 -155.782)" fill="#fff"/>
      <path id="path246" d="M219.806-143.554a29.084,29.084,0,0,1-29.084-29.083,29.084,29.084,0,0,1,29.084-29.084,29.084,29.084,0,0,1,29.084,29.084A29.084,29.084,0,0,1,219.806-143.554Zm0-64.473a35.389,35.389,0,0,0-35.391,35.391,35.389,35.389,0,0,0,35.391,35.391A35.389,35.389,0,0,0,255.2-172.637a35.389,35.389,0,0,0-35.391-35.391" fill="#303c43"/>
      <path id="path248" d="M218.517-140.686a30.6,30.6,0,0,1-30.6-30.6,30.6,30.6,0,0,1,30.6-30.6,30.6,30.6,0,0,1,30.6,30.6A30.6,30.6,0,0,1,218.517-140.686Zm0-67.833a37.234,37.234,0,0,0-37.235,37.235,37.233,37.233,0,0,0,37.235,37.233,37.232,37.232,0,0,0,37.233-37.233,37.234,37.234,0,0,0-37.233-37.235" fill="#3d4d57"/>
      <path id="path252" d="M218.517-61.671c-7.435,0-7.435-7.988-7.435-7.988h14.869s.491,7.988-7.435,7.988" fill="#341f23"/>
      <path id="path254" d="M225.951-69.659H211.082v-52.964h14.869v52.964" fill="#4b2f35"/>
    </g>
  </g>
</svg>
